<?xml version="1.0" encoding="iso-8859-1"?>
<!-- Uploaded to: SVG Repo, www.svgrepo.com, Generator: SVG Repo Mixer Tools -->
<!DOCTYPE svg PUBLIC "-//W3C//DTD SVG 1.1//EN" "http://www.w3.org/Graphics/SVG/1.1/DTD/svg11.dtd">
<svg fill="#000000" height="800px" width="800px" version="1.1" id="Capa_1" xmlns="http://www.w3.org/2000/svg" xmlns:xlink="http://www.w3.org/1999/xlink" 
	 viewBox="0 0 484.222 484.222" xml:space="preserve">
<g>
	<path d="M75.326,165.786c-5.523,0-10,4.477-10,10v15.838c0,5.523,4.477,10,10,10s10-4.477,10-10v-15.838
		C85.326,170.263,80.849,165.786,75.326,165.786z"/>
	<path d="M182.05,201.625c5.523,0,10-4.477,10-10v-15.838c0-5.523-4.477-10-10-10s-10,4.477-10,10v15.838
		C172.05,197.148,176.527,201.625,182.05,201.625z"/>
	<path d="M128.688,250.855c12.548,0,25.095-4.776,34.647-14.328c3.905-3.905,3.905-10.237,0-14.143
		c-3.905-3.905-10.237-3.905-14.143,0c-11.306,11.308-29.704,11.307-41.009,0c-3.905-3.905-10.237-3.905-14.143,0
		c-3.905,3.905-3.905,10.237,0,14.143C103.593,246.079,116.14,250.855,128.688,250.855z"/>
	<path d="M299.545,164.742c-5.523,0-10,4.477-10,10v15.838c0,5.523,4.477,10,10,10s10-4.477,10-10v-15.838
		C309.545,169.219,305.068,164.742,299.545,164.742z"/>
	<path d="M416.269,190.581v-15.838c0-5.523-4.477-10-10-10s-10,4.477-10,10v15.838c0,5.523,4.477,10,10,10
		S416.269,196.104,416.269,190.581z"/>
	<path d="M373.412,221.341c-11.308,11.306-29.704,11.306-41.009,0c-3.905-3.905-10.237-3.905-14.143,0
		c-3.905,3.905-3.905,10.237,0,14.143c9.553,9.553,22.098,14.328,34.647,14.328c12.545,0,25.096-4.777,34.646-14.328
		c3.905-3.905,3.906-10.237,0-14.142C383.648,217.436,377.317,217.437,373.412,221.341z"/>
	<path d="M288.691,207.49H278.16c-5.523,0-10,4.477-10,10s4.477,10,10,10h10.531c5.523,0,10-4.477,10-10
		S294.214,207.49,288.691,207.49z"/>
	<path d="M437.689,57.321c-30.007-30.007-69.902-46.533-112.338-46.533c-29.68,0-58.315,8.1-83.24,23.485
		c-24.925-15.386-53.56-23.485-83.239-23.485c-42.437,0-82.333,16.526-112.338,46.533C16.526,87.327,0,127.223,0,169.659
		c0,42.437,16.526,82.333,46.533,112.339L235.04,470.506c1.875,1.875,4.419,2.929,7.071,2.929s5.196-1.054,7.071-2.929
		l188.507-188.508c30.007-30.007,46.533-69.903,46.533-112.339C484.222,127.223,467.696,87.327,437.689,57.321z M423.547,267.855
		L242.111,449.292L60.675,267.856h0C34.445,241.627,20,206.753,20,169.659c0-37.094,14.445-71.967,40.675-98.196
		c26.229-26.229,61.102-40.675,98.196-40.675c27.917,0,54.762,8.186,77.632,23.673c3.386,2.293,7.828,2.293,11.214,0
		c22.871-15.487,49.716-23.673,77.633-23.673c37.094,0,71.967,14.445,98.196,40.675c26.23,26.229,40.675,61.103,40.675,98.196
		C464.222,206.753,449.777,241.626,423.547,267.855z"/>
	<path d="M415.661,79.348c-47.504-47.505-123.429-49.695-173.55-6.562C191.99,29.654,116.067,31.843,68.561,79.348
		c-24.123,24.123-37.408,56.196-37.408,90.311s13.285,66.188,37.408,90.311L235.04,426.449c1.875,1.875,4.419,2.929,7.071,2.929
		s5.196-1.054,7.071-2.929L415.662,259.97c24.123-24.123,37.408-56.196,37.408-90.311S439.784,103.471,415.661,79.348z
		 M249.183,93.49c41.999-41.999,110.337-42,152.337,0.001c5.629,5.629,10.554,11.773,14.74,18.323
		c-20.626-8.026-40.002-19.443-56.921-33.644c-3.717-3.12-9.139-3.121-12.857-0.001c-18.153,15.232-38.638,27.063-60.884,35.164
		c-17.506,6.37-35.782,10.293-54.325,11.661c-3.835,0.284-7.724,0.456-11.604,0.519c0.436-13.536,2.878-26.709,7.278-39.339
		c2.79,2.279,5.493,4.718,8.094,7.318C238.946,97.396,245.277,97.395,249.183,93.49z M219.589,145.512
		c0.808-0.012,1.615-0.031,2.423-0.051v26.404c0,15.814,2.797,31.291,8.314,46.003c0.031,0.088,0.063,0.176,0.095,0.263
		c5.302,14.025,12.896,26.885,22.44,38.171l-22.157,31.693c-2.321,3.319-5.561,2.737-6.845,2.332
		c-1.284-0.404-4.271-1.781-4.271-5.827V145.512z M209.834,74.755c-6.797,17.566-10.245,36.087-10.245,55.189v8.789
		c-15.539-2.607-30.751-6.966-45.354-13.006c-18.375-7.608-35.544-17.78-51.036-30.237l-11.61-9.949
		c19.593-15.695,43.436-23.549,67.283-23.549C176.426,61.991,193.977,66.25,209.834,74.755z M68.193,227.811
		c3.679-1.477,6.279-5.07,6.279-9.277c0-5.523-4.477-10-10-10h-6.05c-13.926-36.138-7.691-78.325,18.714-109.04l13.167,11.283
		c0.077,0.066,0.156,0.131,0.235,0.195c17.007,13.696,35.864,24.877,56.049,33.235c17.035,7.047,34.826,12,53.002,14.777v49.551
		h-6.686c-5.523,0-10,4.477-10,10s4.477,10,10,10h6.686v20.219C179.496,264.74,154.5,273.5,128.698,273.5
		c-6.758,0-13.501-0.593-20.087-1.764l-25.909-25.909C77.122,240.247,72.291,234.198,68.193,227.811z M242.111,405.236
		L130.356,293.481c24.621-0.305,48.56-7.382,69.232-20.28V284.5c0,11.635,7.168,21.41,18.263,24.904
		c2.699,0.85,5.418,1.262,8.088,1.262c8.306,0,16.108-3.992,21.155-11.21l20.068-28.703c3.349,2.899,6.844,5.655,10.504,8.229
		c19.909,14.006,42.994,22.042,67.192,23.506L242.111,405.236z M401.519,245.827l-36.232,36.232
		c-4.083,0.455-8.231,0.694-12.377,0.694c-22.976,0-45.015-6.961-63.735-20.13c-18.224-12.82-32.023-30.535-39.925-51.247
		c-0.062-0.181-0.128-0.36-0.2-0.539c-4.67-12.458-7.038-25.568-7.038-38.973v-27.815c17.191-1.995,34.114-5.989,50.427-11.926
		c21.856-7.958,42.164-19.192,60.474-33.443c22.284,17.311,48.007,30.398,75.095,38.196c3.328,10.462,5.062,21.487,5.062,32.781
		c0,13.127-2.34,25.893-6.808,37.831h-9.139c-5.523,0-10,4.477-10,10c0,5.244,4.039,9.537,9.174,9.958
		C412.103,234.019,407.164,240.182,401.519,245.827z"/>
</g>
</svg>